<?xml version="1.0" encoding="UTF-8"?>
<!-- Created with Inkscape (http://www.inkscape.org/) -->
<svg width="210" height="210" version="1.1" viewBox="0 0 55.562 55.562" xmlns="http://www.w3.org/2000/svg">
 <g stroke-width="0">
  <path d="m2.2851 14.785c-1.3573 1.5855 6.0364 4.975 7.0335 11.152 0.8667 5.3692-2.997 18.114 5.7737 23.065 8.6262 4.8695 19.972-3.6074 23.584-5.0448 5.8319-2.321 10.33 2.9547 11.379 1.5985 1.2386-1.6016-4.5368-1.8324-6.8403-6.8562-1.2175-2.6554 1.8685-15.406-5.858-20.995-8.9086-6.4447-16.984-0.56154-19.295 0.45226-5.6973 2.4989-14.29-5.1064-15.776-3.3711z" fill="#803300"/>
  <path d="m29.523 25.947-20.976-15.685 34.015-7.7479z" fill="#5fd3bc"/>
  <g fill="#f60">
   <path d="m28.671 46.538c0.88867-1.2161 1.3564-1.6838 1.3564-1.6838s-1.7773-0.93544-1.637-2.3386c0.14032-1.4032 2.7128-2.7128 3.4144-1.4499 0.70158 1.2628-0.88867 3.6482-0.88867 3.6482s2.1047 0.32741 2.3854 2.3386c0.28063 2.0112-0.32741 7.2497-0.88867 7.1561-0.56127-0.09354-0.0037-2.8542-1.1693-2.9466-2.6283-0.20843-1.101 3.1569-1.9644 2.9466-1.395-0.33964-0.90485-7.1896-0.60804-7.6706z"/>
   <path d="m39.688 40.452c-0.0148-2.62e-4 -0.03104 0.0018-0.04858 0.0062-0.28063 0.07016 0.234 0.49104-0.11679 0.65474-0.35079 0.1637-0.18716-0.42116-0.53795-0.42116-0.35079 0 1.4266 5.7999 0.81855 6.3143-0.60804 0.51449-3.8443-0.77061-4.7243 0.37414-1.2417 1.6153-0.67041 6.3333 0.13694 6.3598 0.38917 0.01279-0.27828-1.5908 0.60874-1.9192 0.41245-0.15269 0.60924-0.18333 0.6165-0.10496 0.07215 0.77793 0.5848 2.0072 0.76584 1.9084 0.25724-0.14032 0.09354-1.2862 0.09354-1.4733 0-0.18709 0.25758-0.21029 0.49144-0.49093 0.18578-0.22293 0.10632-0.73999 0.06563-0.94361 0.64275-0.02056 1.5819 0.10834 1.8051 0.17208 0.3274 0.09355 0.21067 2.8531 0.60823 2.8531 0.39757 0 0.46764-3.0173 0.74828-2.9471 0.28063 0.07016 0.30395 2.8768 0.65474 2.8768 0.35079 0 0.4209-2.6428 0.46767-4.654 0.04677-2.0112-1.3095-5.683-1.3095-5.9402 0-0.25725 1.5437-0.56125 1.7074-1.3798 0.1637-0.81852-2.1518-0.70163-2.4324-0.72502-0.26309-0.02192-0.19711-0.51644-0.4191-0.52038z"/>
   <path d="m27.484 33.238c1.0584 0.06519 2.1497 2.5466 2.1497 2.5466s-0.07411-0.48282 0.11135-0.85383c0.2161-0.4323 0.68997-0.77192 0.58318-0.93211-0.19844-0.29766-1.1576-0.76068-1.0914-1.0253 0.06615-0.26458 2.249 0.03307 2.3482 0.89297 0.09922 0.8599-0.16536 2.282-0.16536 2.282s0.56224-0.16536 1.0583 0c0.49609 0.16536 0.7276 0.39688 0.7276 0.39688l0.99219 0.13229s-1.0391 0.19238-2.1452 0.28598c-0.89277 0.07555-2.0897 1.3857-2.8819 1.3346-0.68225-0.04402-1.4843-0.5253-1.9688-0.58762-0.97179-0.12498-1.5958 1.5856-1.9503-0.05731-0.39509-1.831 1.2234-0.53501 1.9617-0.77928 0.69274-0.22921 1.3787-0.41135 1.3787-0.41135s-0.87643-0.39688-1.2072-0.95912c-0.33073-0.56224-0.30279-1.0029-1.0583-0.87643-0.78197 0.13088-1.8843-0.45401-1.6536-0.84336 0.28425-0.47984 1.9939-0.59604 2.8112-0.54571z"/>
  </g>
 </g>
</svg>
